<?xml version="1.0" encoding="UTF-8"?><svg id="Layer_1" xmlns="http://www.w3.org/2000/svg" viewBox="0 0 95.82 95.82"><path d="M32,34.04l-13.87,13.87,10.36,10.36-9.06,9.06L0,47.91,22.93,24.97l9.06,9.06h0Zm19.42,19.42l-8.37,8.37-9.06-9.06,8.37-8.37,9.06,9.06h0ZM47.91,0L24.97,22.93l9.06,9.06,13.87-13.87,10.36,10.36-13.87,13.87,9.06,9.06,13.87-13.87,10.36,10.36-13.87,13.87,9.06,9.06,22.94-22.93L47.91,0h0Zm22.93,72.88l-9.06-9.06-13.87,13.87-10.36-10.36-9.06,9.06,19.42,19.42,22.93-22.93Z" style="fill:#231f20; fill-rule:evenodd;"/></svg>