<svg xmlns="http://www.w3.org/2000/svg" width="135" height="765" id="katakana-profile"><path id="katakana-profile" d="M109.502 929.012h-7.552v51.584c0 11.086.113 15.593.66 20.884l.108 1H79.4217l.1422-1c.7676-5.552.8818-9.299.8818-21.268v-51.2h-50.048v49.664c0 11.043.1126 16.008.5488 21.014l.0912 1H7.7417l.1425-1c.781-5.618 1.0095-9.909 1.0095-21.398V919.54c0-6.287-.1059-9.821-.3177-13.202l-.0663-1.006.1316.008.8747.05c3.8376.217 6.1473.326 12.0497.326h66.816c10.2563 0 13.4083-.116 20.1203-.683l1-.085v24.064zm-78.1043 1v48.664c0 11.775.1284 16.597.6355 21.924l.1043 1.09H6.5853l.1669-1.14c.8858-6.076 1.1415-10.117 1.1415-22.258V919.54c0-6.897-.1277-10.457-.3816-14.139l-.0781-1.132 1.2713.073c4.3751.25 6.5518.374 12.8604.374h66.816c10.7313 0 13.6463-.127 21.0343-.764l1.086-.094v26.154h-7.552v50.584c0 11.773.128 16.077.762 21.774l.123 1.11H78.2653l.1669-1.14c.8847-6.067 1.0135-9.46 1.0135-22.128v-50.2h-48.048zm-9.4644-64.227L-.5 857.093l.0791-.76c2.9499-28.345 5.6478-42.473 13.5929-73.997l.2592-1.029 23.4549 7.4-.2823.944c-8.5576 28.61-12.1281 47.231-14.5539 74.809l-.1166 1.325zm35.4209 1.649l-22.1429-8.549.0799-.761c2.1837-20.81 6.9343-43.782 14.7546-70.576l.2827-.969 23.6308 7.131-.3888 1.007c-4.3282 11.202-7.1308 20.877-10.5788 36.968-2.4241 11.355-3.8275 20.155-5.4886 34.466l-.1489 1.283zm4.6595-35.958c3.3599-15.68 6.115-25.31 10.2646-36.184l.3594-.936-21.632-6.528-.2794.96c-7.6417 26.341-12.2907 48.953-14.4406 69.44l20.224 7.808.1198-1.026c1.6126-13.737 3.0108-22.416 5.3842-33.534zm31.5615 46.601l-22.2699-8.964.0823-.754c3.4637-31.686 9.1107-57.609 19.1155-88.265l.3079-.944 24.506 7.798-.41 1.002c-5.989 14.655-9.814 27.398-14.285 47.198-3.3203 15.454-5.1069 26.301-6.895 41.628l-.1518 1.301zm6.0708-43.145c4.385-19.421 8.157-32.097 13.958-46.431l.378-.929-22.5283-7.168c-9.984 30.592-15.616 56.448-19.072 88.064l20.352 8.192.1209-1.029c1.7525-14.822 3.538-25.559 6.7914-40.699zm-64.0003-45.568c-8.4684 28.312-12.0692 46.889-14.4999 73.971l-.0921 1.037-20.48-7.936c2.9136-27.995 5.5764-42.075 13.3235-72.884l.2445-.972 21.504 6.784zm20.608-119.424l32.92 4.837 1 .155v-7.296c0-6.64-.2197-11.523-.6591-15.768l-.1089-1h19.4563l-.084 1c-.319 4.164-.428 9.866-.428 15.896v59.904c0 7.716.11 11.909.432 16.152l.08 1H89.4057l.1275-1c.5299-4.309.6405-7.465.6405-16.152v-31.616c-16.8058-3.01-21.2002-3.685-37.144-5.397l-1-.107v24.576c0 7.896.1085 11.777.4254 15.64l.0866 1h-19.456l.1167-1c.5392-4.731.6513-7.526.6513-16.152v-30.976c0-3.328-.256-4.864-1.408-7.296l8.064-9.728c.7281.379 1.2906.671 1.8728.917 1.9767.833 4.1815 1.126 13.8712 2.411zm-3.224 21.721v23.463c0 8.568.1281 12.371.5079 16.55l.0992 1.09H31.9596l.1331-1.118c.6334-5.321.761-7.837.761-17.034v-30.976c0-1.646-.0642-2.788-.2547-3.799-.1879-.997-.5062-1.906-1.057-3.069l-.2728-.576 8.9858-10.84.7161.373.003.001c1.5703.817 2.2759 1.184 4.1104 1.572 1.92.406 5.004.815 11.3007 1.651h.0017l32.7868 4.816v-6.129c0-7.145-.2552-12.224-.7615-16.654l-.1273-1.114h21.6721l-.099 1.091c-.38 4.175-.508 10.279-.508 16.805v59.904c0 8.31.128 12.502.508 17.069l.091 1.083H88.2655l.1488-1.13c.6312-4.798.7594-7.689.7594-17.022v-30.779c-16.0731-2.875-20.5765-3.556-36.144-5.228zm16.4693-64.497H42.5498l.1708-1.147c.8839-5.935 1.1411-12.779 1.1411-26.093V538.74c0-12.775-.2551-17.603-1.1466-26.136l-.1153-1.104h26.9235l-.115 1.104c-.6338 6.085-.7626 11.667-.7626 26.264v60.928c0 14.327.128 18.519.7647 26.286l.0886 1.082zM68.3137 513.5c-.5535 5.784-.668 11.57-.668 25.368v60.928c0 13.712.1171 18.173.6874 25.368l.0806 1h-24.704l.1419-1c.7815-5.794 1.0101-12.659 1.0101-25.24V538.74c0-12.294-.2361-17.267-1.0487-25.24l-.1033-1h24.704l-.1 1zm-31.1946-28.928H11.4699l.1439-1.127c.7597-5.951.8879-9.484.8879-19.841v-43.392c0-11.245-.2555-15.682-.8893-21.132l-.1297-1.116h25.6196l-.075 1.07c-.5101 7.268-.6376 10.573-.6376 20.922v43.904c0 9.455.2556 15.184.6364 19.627l.093 1.085zM101.263 497.5H75.0983l.1302-1.116c.8903-7.631 1.0172-9.383 1.0172-21.26v-66.176c0-12.802-.1293-16.701-1.0126-22.506l-.1751-1.15h26.195l-.099 1.091c-.508 5.585-.636 8.748-.636 22.181v66.944c0 11.39.128 15.827.635 20.893l.11 1.099zm-65.3027-97.536c-.4543 6.623-.5706 10.11-.5706 19.992v43.904c0 8.782.2201 14.374.5582 18.712l.0818 1h-23.424l.1244-1c.6577-5.443.7716-9.187.7716-18.968v-43.392c0-10.575-.2256-15.171-.7829-20.248l-.1131-1h23.424l-.0694 1zm64.1087-12.672c-.438 5.058-.551 8.647-.551 21.272v66.944c0 10.646.112 15.255.544 19.992l.096 1H76.2217l.1161-1c.7912-6.861.9079-9.006.9079-20.376v-66.176c0-12.063-.1137-16.282-.8767-21.656l-.1473-1h23.9363l-.089 1zm-41.7014-130.64l-.0936 1.086c-.6363 7.381-.6363 8.499-.6363 19.882v20.957c14.5158 1.069 22.9722 3.55 32.5385 9.29l.007.004c11.7628 7.188 19.1718 16.997 26.3888 34.781l.348.857-.827.414c-4.589 2.294-7.762 4.088-10.685 6.246s-5.63 4.701-9.2613 8.524l-1.1936 1.256-.4905-1.662c-3.4287-11.619-7.9321-19.805-14.0098-25.216-5.8464-5.205-13.2482-7.93-22.8151-8.567v25.18c0 10.616.1282 14.16.6351 19.229l.1099 1.099H34.5978l.1889-1.161c.8819-5.417 1.011-8.931 1.011-19.551v-71.296c0-11.383-.1284-14.529-.8872-20.22l-.151-1.132h23.6081zm-1.7299 66.792l1 .058c19.5331 1.28 30.6249 11.138 37.4526 33.4l.3314 1.102.7956-.832c6.7827-7.049 10.5537-9.706 19.4287-14.144-7.168-17.664-14.464-27.264-25.9843-34.304-9.6-5.76-18.048-8.192-33.024-9.216V277.62c0-10.86 0-12.414.5545-18.968l.0855-1h-21.376l.13 1c.6527 5.168.766 8.636.766 19.352V349.3c0 9.968-.1127 13.738-.8666 18.712l-.1574 1h21.504l-.0968-1c-.4316-4.626-.5432-8.408-.5432-18.328v-26.24zm-31.0172 33.512H1.7101l.1795-1.154c.8836-5.68 1.0121-8.56 1.0121-19.686v-44.8c0-11.899-.1289-14.775-1.0116-20.323l-.1841-1.157h23.9115l-.113 1.102c-.5066 4.94-.6348 6.947-.6348 19.994V336.5c0 11.131.1284 14.543.6345 19.351l.1163 1.105zm-1.2118-85.12c-.4281 4.329-.539 6.945-.539 19.096V336.5c0 10.36.1108 14.073.5384 18.456l.1016 1H2.8777l.1518-1c.759-5.139.8722-8.366.8722-18.84v-44.8c0-11.18-.1129-14.457-.8689-19.48l-.1551-1h21.632l-.101 1zm-6.8252-111.798l13.6268-19.873.8969 1.06c1.315 1.554 1.3167 1.557 4.3374 4.325 7.6212 6.86 14.3598 14.588 20.7069 23.422h38.9102c8.3213 0 12.9943-.129 17.5263-.758l1.138-.158v25.068l-1.127-.144c-4.939-.633-8.223-.888-17.5373-.888H71.071c5.8539 9.869 7.8096 14.48 14.2812 32.063l.3359.912-.903.362c-6.9361 2.774-11.7133 5.663-17.915 10.726l-1.1844.967-.4111-1.473c-5.4762-19.612-13.3649-36.527-24.1683-51.524l-.001-.002c-7.7822-10.844-16.2638-19.673-22.619-23.536l-.9028-.549zm52.3242 32.054l-.598-1h26.752c8.7073 0 12.1903.222 16.6643.771l1 .125v-22.784l-1 .131c-4.31.527-8.944.637-16.6643.637h-39.424c-6.4-8.96-13.184-16.768-20.864-23.68-2.0152-1.847-2.7085-2.483-3.3444-3.171-.1521-.165-.301-.332-.4638-.52l-.6718-.789-12.288 17.92a29.385 29.385 0 0 1 .846.535c6.4119 4.201 14.5909 12.857 22.066 23.273 10.6867 14.836 18.533 31.524 24.0242 50.792l.2958 1.048.8466-.685c5.8717-4.702 10.6089-7.507 17.3285-10.195-6.5712-17.856-8.4583-22.258-14.5051-32.408zm-.4087-76.928H42.5498l.1708-1.147c.8839-5.935 1.1411-12.779 1.1411-26.093V26.7401c0-12.7751-.2551-17.6031-1.1466-26.1361L42.5998-.5h26.9235l-.115 1.1036c-.6338 6.0852-.7626 11.6678-.7626 26.2644v60.928c0 14.326.128 18.519.7647 26.286l.0886 1.082zM68.3137 1.5c-.5535 5.7835-.668 11.5701-.668 25.368v60.928c0 13.712.1171 18.173.6874 25.368l.0806 1h-24.704l.1419-1c.7815-5.794 1.0101-12.659 1.0101-25.24V26.7401c0-12.2943-.2361-17.2673-1.0487-25.2401l-.1033-1h24.704l-.1 1z" fill="none"/></svg>