<?xml version="1.0" encoding="utf-8"?>
<svg viewBox="0 0 750 123" width="750" height="123" fill="none" style="fill: none" xmlns="http://www.w3.org/2000/svg">
  <path id="katakana-project" d="M 690.552 118.052 L 691.111 118.052 L 691.049 117.497 C 690.54 112.916 690.284 106.538 690.284 97.968 L 690.284 65.56 C 691.082 66.002 691.876 66.32 695.296 67.687 L 695.35 67.709 C 695.352 67.71 695.353 67.71 695.354 67.711 C 708.12 73.072 723.192 81.375 735.58 89.931 L 736.032 90.244 L 736.3 89.764 L 748.46 68.004 L 748.698 67.58 L 748.28 67.331 C 728.386 55.471 711.91 47.921 690.284 40.774 L 690.284 23.6 C 690.284 15.015 690.413 8.652 690.919 4.98 L 690.998 4.412 L 690.424 4.412 L 665.72 4.412 L 665.161 4.412 L 665.223 4.967 C 665.989 11.859 666.116 13.12 666.116 23.472 L 666.116 97.968 C 666.116 108.065 665.861 111.763 665.35 117.508 L 665.302 118.052 L 665.848 118.052 L 690.552 118.052 Z M 526.101 115.123 L 526.235 115.617 L 526.726 115.471 C 529.579 114.626 530.582 114.397 533.697 113.684 C 534.335 113.538 535.062 113.371 535.912 113.175 L 535.8 112.688 L 535.913 113.175 C 559.754 107.663 571.974 102.91 585.864 93.908 C 603.884 82.323 616.098 67.134 627.774 41.858 L 627.945 41.487 L 627.616 41.245 C 618.037 34.221 615.127 31.688 608.889 24.177 L 608.339 23.515 L 608.036 24.32 C 604.335 34.147 600.895 41.153 595.542 49.31 L 595.539 49.314 C 585.737 64.59 574.297 74.122 558.265 80.738 L 558.264 80.738 C 546.282 85.71 532.893 88.898 519.889 89.918 L 519.288 89.965 L 519.445 90.547 L 526.101 115.123 Z M 518.261 28.66 L 517.878 29.129 L 518.41 29.416 C 531.16 36.301 541.999 44.715 553.103 56.33 L 553.508 56.754 L 553.863 56.286 L 568.967 36.318 L 569.243 35.952 L 568.903 35.645 C 558.119 25.888 549.77 19.981 533.621 10.497 L 533.251 10.28 L 532.981 10.612 L 518.261 28.66 Z M 416.376 37.668 L 429.956 37.668 L 429.956 85.18 L 407.16 85.18 C 396.932 85.18 392.346 84.924 386.23 84.16 L 385.668 84.09 L 385.668 84.656 L 385.668 107.056 L 385.668 107.604 L 386.213 107.554 C 391.823 107.044 395.261 106.916 406.776 106.916 L 478.968 106.916 C 488.562 106.916 494.941 107.172 499.65 107.681 L 500.204 107.741 L 500.204 107.184 L 500.204 84.656 L 500.204 84.072 L 499.627 84.162 C 493.909 85.051 489.975 85.18 478.584 85.18 L 454.252 85.18 L 454.252 37.668 L 469.24 37.668 C 481.266 37.668 484.065 37.796 489.933 38.306 L 490.476 38.353 L 490.476 37.808 L 490.476 15.664 L 490.476 15.095 L 489.911 15.168 C 484.054 15.932 479.598 16.188 468.856 16.188 L 416.76 16.188 C 406.399 16.188 402.457 16.06 395.706 15.168 L 395.14 15.094 L 395.14 15.664 L 395.14 37.808 L 395.14 38.356 L 395.685 38.306 C 401.295 37.796 404.349 37.668 416.376 37.668 Z M 347.149 3.472 L 346.707 3.177 L 346.44 3.637 C 342.778 9.951 334.265 18.607 323.275 26.913 L 323.271 26.916 C 302.719 42.745 283.194 52.318 255.473 60.111 L 254.744 60.315 L 255.218 60.905 C 261.463 68.68 263.997 72.862 267.432 81.387 L 267.612 81.832 L 268.064 81.671 C 286.043 75.259 296.269 70.69 309.252 63.127 L 309.252 97.584 C 309.252 108.583 309.124 111.382 308.486 118.145 L 308.435 118.692 L 308.984 118.692 L 333.816 118.692 L 334.364 118.692 L 334.314 118.146 C 333.676 111.255 333.548 107.943 333.548 97.456 L 333.548 48.433 C 343.857 41.032 352.913 33.113 362.974 22.797 L 362.98 22.791 C 365.014 20.629 365.13 20.513 367.935 18.09 L 368.432 17.661 L 367.885 17.296 L 347.149 3.472 Z M 135.172 60.08 L 135.172 60.621 L 135.712 60.578 C 143.763 59.94 145.925 59.812 156.024 59.812 L 210.695 59.812 C 206.052 70.73 200.515 77.796 191.439 84.51 L 191.436 84.512 C 182.288 91.373 173.138 95.447 157.819 99.404 L 157.018 99.611 L 157.574 100.224 C 164.973 108.389 168.522 113.592 171.822 121.082 L 172.015 121.519 L 172.46 121.346 C 190.023 114.552 199.295 109.536 209.081 101.295 C 221.71 90.729 230.97 76.308 237.648 57.173 L 237.649 57.17 C 238.547 54.54 239.052 53.123 239.52 52.076 C 239.982 51.044 240.411 50.369 241.176 49.221 L 241.395 48.893 L 241.126 48.604 L 231.142 37.852 L 230.909 37.6 L 230.59 37.728 C 229.001 38.363 228.023 38.697 226.692 38.881 C 225.34 39.067 223.616 39.1 220.536 39.1 L 156.28 39.1 C 145.539 39.1 141.468 38.844 135.738 38.08 L 135.172 38.005 L 135.172 38.576 L 135.172 60.08 Z M 145.796 28.08 L 145.796 28.628 L 146.341 28.578 C 151.953 28.068 154.752 27.94 164.856 27.94 L 206.328 27.94 C 215.15 27.94 221.153 28.196 226.001 28.578 L 226.54 28.621 L 226.54 28.08 L 226.54 6.5760000000000005 L 226.54 5.983 L 225.956 6.083 C 221.522 6.843 216.056 7.1 205.944 7.1 L 165.112 7.1 C 156.033 7.1 151.326 6.844 146.372 6.082 L 145.796 5.993 L 145.796 6.5760000000000005 L 145.796 28.08 Z M 41.809 1.22 L 41.298 1.1280000000000001 L 41.225 1.641 C 40.596 6.043 39.088 10.211 35.77 16.847 C 27.488 33.155 17.431 44.741 1.88 55.703 L 1.255 56.144 L 1.909 56.54 C 10.309 61.631 13.471 64.412 19.969 71.802 L 20.282 72.158 L 20.654 71.864 C 32.785 62.287 41.371 52.954 49.677 39.841 L 82.757 39.468 C 78.042 53.82 70.986 65.565 61.717 74.96 C 50.514 86.163 37.268 94.319 19.148 100.954 L 18.356 101.245 L 18.991 101.8 C 26.114 108.033 30.042 112.976 34.236 121.109 L 34.454 121.533 L 34.888 121.335 C 55.925 111.714 70.453 101.565 82.16 88.186 C 93.482 75.319 102.215 58.611 108.758 37.315 C 109.654 34.434 110.192 32.823 110.694 31.616 C 111.191 30.419 111.655 29.613 112.421 28.337 L 112.623 28 L 112.343 27.724 L 101.719 17.228 L 101.492 17.004 L 101.192 17.116 C 99.67 17.687 98.587 18.025 97.276 18.226 C 95.957 18.428 94.389 18.492 91.896 18.492 L 91.89 18.492 L 60.581 18.866 C 61.157 17.706 61.379 17.211 62.78 14.086 C 63.045 13.555 63.431 12.651 63.937 11.389 C 64.108 11.044 64.255 10.7 64.382 10.402 C 64.4 10.359 64.418 10.318 64.436 10.277 C 64.585 9.93 64.695 9.688 64.792 9.541 L 64.823 9.495 L 64.843 9.443 C 65.392 8.016 65.645 7.565 66.129 6.701 C 66.197 6.579 66.27 6.449 66.349 6.307 L 66.689 5.696 L 66.001 5.572 L 41.809 1.22 Z" style="fill: none" data-darkreader-inline-stroke=""/>
</svg>