<svg width="616" height="118" viewBox="0 0 616 118" fill="none" xmlns="http://www.w3.org/2000/svg">
<path fill-rule="evenodd" clip-rule="evenodd" d="M94.4217 5.50404L107.022 17.6847L106.576 18.3753C105.881 19.448 105.513 20.0796 105.184 20.9528C104.843 21.8577 104.536 23.0414 104.021 25.2291L104.02 25.2352C98.2324 49.1571 90.4944 65.3074 78.086 80.0429C66.0607 94.3954 51.5891 104.715 28.9701 115.124L28.0997 115.525L27.6623 114.673C25.1769 109.829 23.2872 106.591 20.9855 103.538C18.6799 100.48 15.9398 97.5781 11.7223 93.4245L10.5514 92.2713L12.1137 91.7614C30.4274 85.784 43.7203 78.0488 54.8506 66.9192C65.1792 56.467 71.5555 45.3147 75.5089 30.736H23.688C11.2895 30.736 9.01943 30.8636 2.27791 31.4996L1.18399 31.6028V6.16006L2.34467 6.349C7.75865 7.23034 11.5231 7.36 24.072 7.36H84.872C89.0117 7.36 91.1605 6.98642 93.8022 5.78564L94.4217 5.50404ZM76.808 29.736C76.7214 30.0711 76.6337 30.4044 76.5446 30.736C72.5532 45.6039 66.0774 56.9814 55.56 67.624C44.5145 78.6695 31.3766 86.3918 13.491 92.3599C13.1372 92.4779 12.7815 92.5953 12.424 92.712C12.6964 92.9803 12.9629 93.2436 13.2236 93.5021C21.0478 101.261 23.721 104.802 28.552 114.216C51.08 103.848 65.416 93.608 77.32 79.4C89.608 64.808 97.288 48.808 103.048 25C104.072 20.648 104.328 20.008 105.736 17.832L94.216 6.69601C91.4 7.97601 89.096 8.36 84.872 8.36H24.072C12.3002 8.36 8.19377 8.24728 3.18399 7.4929C2.85535 7.44342 2.52282 7.39117 2.18399 7.33601V30.504C2.52822 30.4715 2.86092 30.4404 3.18399 30.4105C9.22784 29.8513 11.902 29.736 23.688 29.736H76.808ZM202.419 17.6898L222.292 31.3166L221.232 32.2132C219.677 33.5287 219.676 33.5299 216.906 36.5518C210.047 44.1726 202.319 50.9109 193.485 57.2577V96.168C193.485 104.489 193.614 109.162 194.243 113.694L194.401 114.832H169.333L169.477 113.705C170.11 108.766 170.365 105.482 170.365 96.168V71.1773C160.496 77.0312 155.885 78.9869 138.302 85.4585L137.39 85.7944L137.029 84.8914C134.254 77.9553 131.365 73.1781 126.302 66.9764L125.336 65.792L126.808 65.3808C146.42 59.9047 163.335 52.016 178.333 41.2126L178.334 41.2116C189.178 33.4294 198.008 24.9478 201.87 18.5926L202.419 17.6898ZM170.365 70.014C170.692 69.8191 171.025 69.6199 171.365 69.416V96.168C171.365 104.875 171.143 108.358 170.595 112.832C170.554 113.159 170.513 113.492 170.469 113.832H193.253C193.207 113.5 193.163 113.167 193.122 112.832C192.595 108.522 192.485 103.888 192.485 96.168V56.744C201.445 50.344 209.253 43.56 216.165 35.88C218.012 33.8647 218.648 33.1715 219.336 32.5355C219.501 32.3834 219.668 32.2346 219.856 32.0718C220.081 31.8776 220.334 31.6634 220.645 31.4L202.725 19.112C202.556 19.3904 202.378 19.6724 202.19 19.958C197.989 26.3699 189.333 34.5489 178.917 42.024C164.081 52.7106 147.394 60.557 128.125 66.0482C127.777 66.1476 127.427 66.2462 127.077 66.344C127.31 66.629 127.538 66.9111 127.762 67.1906C132.464 73.0625 135.269 77.7999 137.957 84.52C155.813 77.9478 160.215 76.0608 170.365 70.014ZM351.849 3.18848L364.98 17.7164L364.351 18.3879C363.402 19.3995 362.887 20.0079 362.4 20.8243C361.898 21.6657 361.412 22.7521 360.575 24.7467L360.573 24.7525C352.304 44.1313 341.164 57.2236 324.468 67.5779L323.704 68.0518L323.152 67.3419C319.126 62.1665 315.322 58.364 310.486 54.6782C309.621 67.1123 307.422 76.1309 303.064 84.3485L303.058 84.3599C298.496 92.702 291.729 100.11 282.784 106.333L282.777 106.338C277.464 109.966 273.056 112.297 264.59 116.273L263.711 116.686L263.273 115.82C260.715 110.767 258.95 107.526 256.913 104.613C254.881 101.705 252.559 99.0957 248.86 95.3331L247.719 94.1725L249.27 93.6791C263.245 89.2325 272.25 83.6869 278.095 76.2273C284.035 68.5542 286.205 59.7386 286.205 42.792C286.205 38.7273 286.078 36.8923 285.462 34.1816L285.184 32.96H311.662L311.49 34.1083C311.116 36.6025 310.989 37.7023 310.861 44.9856C310.859 45.0616 310.85 45.307 310.838 45.6441C310.826 45.9703 310.811 46.3823 310.796 46.8099C310.786 47.1036 310.777 47.4093 310.768 47.7097C311.109 47.5446 311.559 47.3331 312.191 47.0355L312.225 47.02C312.229 47.0178 312.234 47.0156 312.238 47.0133C320.896 42.6214 327.984 35.6465 332.542 27.152H273.125C263.424 27.152 258.979 27.4069 252.877 28.0426L251.773 28.1576V3.48432L252.923 3.65939C258.739 4.54441 263.034 4.80001 273.509 4.80001H340.581C344.184 4.80001 346.13 4.76632 347.541 4.58423C348.894 4.40965 349.755 4.09901 351.19 3.47494L351.849 3.18848ZM334.181 26.152C334.016 26.4875 333.846 26.8209 333.673 27.152C329.028 36.0437 321.685 43.3461 312.677 47.912C311.649 48.3958 311.107 48.651 310.74 48.8396C310.546 48.9391 310.401 49.0201 310.259 49.1064C310.101 49.2027 309.947 49.3055 309.733 49.448C309.733 49.1322 309.741 48.7073 309.753 48.2445C309.777 47.2821 309.818 46.1555 309.842 45.5044C309.854 45.1994 309.861 44.9988 309.861 44.968C309.971 38.6797 310.082 36.9554 310.356 34.96C310.4 34.6403 310.448 34.3136 310.501 33.96H286.437C286.515 34.3049 286.586 34.6364 286.65 34.96C287.106 37.279 287.205 39.1977 287.205 42.792C287.205 59.816 285.029 68.904 278.885 76.84C273.022 84.3249 264.119 89.8645 250.637 94.2883C250.285 94.4037 249.931 94.5182 249.573 94.632C249.841 94.9042 250.101 95.1705 250.355 95.4315C257.149 102.415 259.23 105.62 264.165 115.368C264.165 115.368 264.165 115.368 264.165 115.368C272.613 111.4 276.965 109.096 282.213 105.512C291.045 99.368 297.701 92.072 302.181 83.88C306.527 75.6852 308.704 66.6474 309.532 53.9624C309.558 53.5705 309.582 53.175 309.605 52.776C309.929 53.0119 310.249 53.2479 310.564 53.4841C315.724 57.3494 319.719 61.2998 323.941 66.728C340.453 56.488 351.461 43.56 359.653 24.36C361.317 20.392 361.701 19.752 363.621 17.704L351.589 4.39201C348.645 5.67201 347.749 5.80001 340.581 5.80001H273.509C263.615 5.80001 259.181 5.57255 253.773 4.79602C253.444 4.74874 253.111 4.69943 252.773 4.64801V27.048C253.111 27.0128 253.444 26.9788 253.773 26.9459C259.426 26.3806 263.932 26.152 273.125 26.152H334.181ZM389.87 1.46625L417.624 1.60572L417.476 2.73046C416.844 7.53477 416.717 10.8151 416.589 18.361L415.835 84.9256C440.788 79.0437 459.31 64.7343 470.632 42.2148L471.386 40.7151L472.345 42.0922C478.185 50.4715 482.084 54.742 489.409 60.2993L490.149 60.8603L489.644 61.6394C480.298 76.0776 469.639 87.07 456.536 95.2717C443.439 103.469 427.95 108.848 408.984 112.128C408.981 112.128 408.978 112.129 408.975 112.129L408.775 112.167C406.518 112.594 405.25 112.834 404.282 113.113C403.332 113.386 402.675 113.697 401.632 114.31L400.91 114.735L388.551 100.293L388.83 99.7061C389.436 98.4333 389.752 97.5079 389.943 96.1416C390.141 94.7254 390.205 92.8393 390.269 89.6271C390.269 89.6248 390.269 89.6224 390.269 89.62L390.781 18.472V18.4683L390.781 18.4648L390.781 16.424C390.781 10.4385 390.526 6.38857 390.022 2.60417L389.87 1.46625ZM391.781 18.472L391.269 89.64C391.141 96.04 391.013 97.448 389.733 100.136L401.125 113.448C403.259 112.193 404.039 112.045 408.533 111.195L408.805 111.144C446.565 104.616 470.245 89.768 488.805 61.096C481.658 55.674 477.714 51.4383 472.176 43.5922C471.961 43.2883 471.745 42.979 471.525 42.664C471.355 43.0022 471.183 43.3385 471.01 43.673C459.469 65.9589 440.799 80.1315 415.824 85.9554C415.491 86.0331 415.156 86.1093 414.821 86.184L415.589 18.344C415.708 11.3199 415.827 7.94987 416.358 3.59938C416.398 3.27245 416.44 2.93998 416.485 2.60001L391.013 2.472C391.057 2.80329 391.099 3.13649 391.14 3.47266C391.567 7.03305 391.781 10.927 391.781 16.424V18.472ZM614.528 94.0842L595.13 114.591L594.414 113.684C583.524 99.9159 572.518 88.9812 558.601 78.0888C546.561 92.0791 531.393 103.2 511.794 112.684L510.905 113.114L510.464 112.231C506.029 103.362 503.4 99.6055 496.303 92.2546L495.254 91.1686L496.663 90.6267C513.187 84.2712 526.256 76.0201 537.803 64.9815C549.231 54.0444 556.837 43.1287 562.719 29.0952L530.965 29.5837C530.964 29.5838 530.963 29.5838 530.962 29.5838C519.963 29.8396 515.919 30.0949 510.735 30.8535L509.622 31.0163L508.918 5.93946L510.077 6.08812C515.033 6.72348 518.446 6.97601 523.39 6.97601C524.409 6.97601 526.829 6.97601 530.524 6.8486L530.533 6.84826L574.313 6.20823L574.319 6.20811L574.478 6.2047C577.408 6.14243 579.001 6.10855 580.287 5.94409C581.552 5.78231 582.525 5.49245 584.227 4.86226L584.835 4.63685L597.244 17.3279L596.545 18.0271C594.758 19.8143 594.05 20.959 592.149 25.266C585.539 40.8546 580.725 49.8295 573.821 59.2128C588.73 69.9583 594.178 74.6471 613.809 93.3969L614.528 94.0842ZM573.226 60.0163C572.958 59.8236 572.688 59.6288 572.414 59.432C572.614 59.1638 572.813 58.896 573.01 58.6286C579.855 49.3258 584.636 40.4249 591.23 24.872C593.15 20.52 593.918 19.24 595.838 17.32L584.574 5.80001C581.164 7.06293 580.371 7.07978 574.572 7.20294L574.334 7.208L530.558 7.848C526.846 7.97601 524.414 7.97601 523.39 7.97601C518.739 7.97601 515.422 7.75383 510.954 7.206C510.626 7.16577 510.292 7.12379 509.95 7.08001L510.59 29.864C510.926 29.8148 511.258 29.7677 511.586 29.7226C516.391 29.0632 520.639 28.8236 530.942 28.584L564.222 28.072C564.085 28.4093 563.948 28.7447 563.809 29.0785C557.849 43.4375 550.128 54.5708 538.494 65.704C527.083 76.6137 514.197 84.8206 498.032 91.1674C497.697 91.299 497.36 91.4299 497.022 91.56C497.278 91.8251 497.528 92.0856 497.773 92.342C504.384 99.2643 507.038 103.143 511.357 111.782C511.357 111.783 511.358 111.783 511.358 111.784C531.198 102.184 546.43 90.9202 558.462 76.7124C558.462 76.7126 558.462 76.7123 558.462 76.7124C572.528 87.6391 583.637 98.5653 594.57 112.273C594.779 112.536 594.989 112.799 595.198 113.064L613.115 94.1233L613.118 94.12C613.117 94.1193 613.116 94.1185 613.116 94.1178C593.502 75.3847 588.091 70.7305 573.226 60.0163Z" fill="black"/>
<path d="M264.165 115.368C259.23 105.62 257.149 102.415 250.355 95.4315C250.101 95.1705 249.841 94.9042 249.573 94.632C249.931 94.5182 250.285 94.4037 250.637 94.2883C264.119 89.8645 273.022 84.3249 278.885 76.84C285.029 68.904 287.205 59.816 287.205 42.792C287.205 39.1977 287.106 37.279 286.65 34.96C286.586 34.6364 286.515 34.3049 286.437 33.96H310.501C310.448 34.3136 310.4 34.6403 310.356 34.96C310.082 36.9554 309.971 38.6797 309.861 44.968C309.861 44.9988 309.854 45.1994 309.842 45.5044C309.818 46.1555 309.777 47.2821 309.753 48.2445C309.741 48.7073 309.733 49.1322 309.733 49.448C309.947 49.3055 310.101 49.2027 310.259 49.1064C310.401 49.0201 310.546 48.9391 310.74 48.8396C311.107 48.651 311.649 48.3958 312.677 47.912C321.685 43.3461 329.028 36.0437 333.673 27.152C333.846 26.8209 334.016 26.4875 334.181 26.152H273.125C263.932 26.152 259.426 26.3806 253.773 26.9459C253.444 26.9788 253.111 27.0128 252.773 27.048V4.64801C253.111 4.69943 253.444 4.74874 253.773 4.79602C259.181 5.57255 263.615 5.80001 273.509 5.80001H340.581C347.749 5.80001 348.645 5.67201 351.589 4.39201L363.621 17.704C361.701 19.752 361.317 20.392 359.653 24.36C351.461 43.56 340.453 56.488 323.941 66.728C319.719 61.2998 315.724 57.3494 310.564 53.4841C310.249 53.2479 309.929 53.0119 309.605 52.776C309.582 53.175 309.558 53.5705 309.532 53.9624C308.704 66.6474 306.527 75.6852 302.181 83.88C297.701 92.072 291.045 99.368 282.213 105.512C276.965 109.096 272.613 111.4 264.165 115.368ZM264.165 115.368C264.165 115.368 264.165 115.368 264.165 115.368ZM558.462 76.7124C546.43 90.9202 531.198 102.184 511.358 111.784C511.358 111.783 511.357 111.783 511.357 111.782C507.038 103.143 504.384 99.2643 497.773 92.342C497.528 92.0856 497.278 91.8251 497.022 91.56C497.36 91.4299 497.697 91.299 498.032 91.1674C514.197 84.8206 527.083 76.6137 538.494 65.704C550.128 54.5708 557.849 43.4375 563.809 29.0785C563.948 28.7447 564.085 28.4093 564.222 28.072L530.942 28.584C520.639 28.8236 516.391 29.0632 511.586 29.7226C511.258 29.7677 510.926 29.8148 510.59 29.864L509.95 7.08001C510.292 7.12379 510.626 7.16577 510.954 7.206C515.422 7.75383 518.739 7.97601 523.39 7.97601C524.414 7.97601 526.846 7.97601 530.558 7.848L574.334 7.208L574.572 7.20294C580.371 7.07978 581.164 7.06293 584.574 5.80001L595.838 17.32C593.918 19.24 593.15 20.52 591.23 24.872C584.636 40.4249 579.855 49.3258 573.01 58.6286C572.813 58.896 572.614 59.1638 572.414 59.432C572.688 59.6288 572.958 59.8236 573.226 60.0163C588.091 70.7305 593.502 75.3847 613.116 94.1178C613.116 94.1185 613.117 94.1193 613.118 94.12L613.115 94.1233L595.198 113.064C594.989 112.799 594.779 112.536 594.57 112.273C583.637 98.5653 572.528 87.6391 558.462 76.7124ZM558.462 76.7124C558.462 76.7123 558.462 76.7126 558.462 76.7124ZM94.4217 5.50404L93.8022 5.78564C91.1605 6.98642 89.0117 7.36 84.872 7.36H24.072C11.5231 7.36 7.75865 7.23034 2.34467 6.349L1.18399 6.16006V31.6028L2.27791 31.4996C9.01943 30.8636 11.2895 30.736 23.688 30.736H75.5089C71.5555 45.3147 65.1792 56.467 54.8506 66.9192C43.7203 78.0488 30.4274 85.784 12.1137 91.7614L10.5514 92.2713L11.7223 93.4245C15.9398 97.5781 18.6799 100.48 20.9855 103.538C23.2872 106.591 25.1769 109.829 27.6623 114.673L28.0997 115.525L28.9701 115.124C51.5891 104.715 66.0607 94.3954 78.086 80.0429C90.4944 65.3074 98.2324 49.1571 104.02 25.2352L104.021 25.2291C104.536 23.0414 104.843 21.8577 105.184 20.9528C105.513 20.0796 105.881 19.448 106.576 18.3753L107.022 17.6847L94.4217 5.50404ZM76.808 29.736C76.7214 30.0711 76.6337 30.4044 76.5446 30.736C72.5532 45.6039 66.0774 56.9814 55.56 67.624C44.5145 78.6695 31.3766 86.3918 13.491 92.3599C13.1372 92.4779 12.7815 92.5953 12.424 92.712C12.6964 92.9803 12.9629 93.2436 13.2236 93.5021C21.0478 101.261 23.721 104.802 28.552 114.216C51.08 103.848 65.416 93.608 77.32 79.4C89.608 64.808 97.288 48.808 103.048 25C104.072 20.648 104.328 20.008 105.736 17.832L94.216 6.69601C91.4 7.97601 89.096 8.36 84.872 8.36H24.072C12.3002 8.36 8.19377 8.24728 3.18399 7.4929C2.85535 7.44342 2.52282 7.39117 2.18399 7.33601V30.504C2.52822 30.4715 2.86092 30.4404 3.18399 30.4105C9.22784 29.8513 11.902 29.736 23.688 29.736H76.808ZM202.419 17.6898L201.87 18.5926C198.008 24.9478 189.178 33.4294 178.334 41.2116L178.333 41.2126C163.335 52.016 146.42 59.9047 126.808 65.3808L125.336 65.792L126.302 66.9764C131.365 73.1781 134.254 77.9553 137.029 84.8914L137.39 85.7944L138.302 85.4585C155.885 78.9869 160.496 77.0312 170.365 71.1773V96.168C170.365 105.482 170.11 108.766 169.477 113.705L169.333 114.832H194.401L194.243 113.694C193.614 109.162 193.485 104.489 193.485 96.168V57.2577C202.319 50.9109 210.047 44.1726 216.906 36.5518C219.676 33.5299 219.677 33.5287 221.232 32.2132L222.292 31.3166L202.419 17.6898ZM170.365 70.014C170.692 69.8191 171.025 69.6199 171.365 69.416V96.168C171.365 104.875 171.143 108.358 170.595 112.832C170.554 113.159 170.513 113.492 170.469 113.832H193.253C193.207 113.5 193.163 113.167 193.122 112.832C192.595 108.522 192.485 103.888 192.485 96.168V56.744C201.445 50.344 209.253 43.56 216.165 35.88C218.012 33.8647 218.648 33.1715 219.336 32.5355C219.501 32.3834 219.668 32.2346 219.856 32.0718C220.081 31.8776 220.334 31.6634 220.645 31.4L202.725 19.112C202.556 19.3904 202.378 19.6724 202.19 19.958C197.989 26.3699 189.333 34.5489 178.917 42.024C164.081 52.7106 147.394 60.557 128.125 66.0482C127.777 66.1476 127.427 66.2462 127.077 66.344C127.31 66.629 127.538 66.9111 127.762 67.1906C132.464 73.0625 135.269 77.7999 137.957 84.52C155.813 77.9478 160.215 76.0608 170.365 70.014ZM351.849 3.18848L351.19 3.47494C349.755 4.09901 348.894 4.40965 347.541 4.58423C346.13 4.76632 344.184 4.80001 340.581 4.80001H273.509C263.034 4.80001 258.739 4.54441 252.923 3.65939L251.773 3.48432V28.1576L252.877 28.0426C258.979 27.4069 263.424 27.152 273.125 27.152H332.542C327.984 35.6465 320.896 42.6214 312.238 47.0133C312.234 47.0156 312.229 47.0178 312.225 47.02L312.191 47.0355C311.559 47.3331 311.109 47.5446 310.768 47.7097C310.777 47.4093 310.786 47.1036 310.796 46.8099C310.811 46.3823 310.826 45.9703 310.838 45.6441C310.85 45.307 310.859 45.0616 310.861 44.9856C310.989 37.7023 311.116 36.6025 311.49 34.1083L311.662 32.96H285.184L285.462 34.1816C286.078 36.8923 286.205 38.7273 286.205 42.792C286.205 59.7386 284.035 68.5542 278.095 76.2273C272.25 83.6869 263.245 89.2325 249.27 93.6791L247.719 94.1725L248.86 95.3331C252.559 99.0957 254.881 101.705 256.913 104.613C258.95 107.526 260.715 110.767 263.273 115.82L263.711 116.686L264.59 116.273C273.056 112.297 277.464 109.966 282.777 106.338L282.784 106.333C291.729 100.11 298.496 92.702 303.058 84.3599L303.064 84.3485C307.422 76.1309 309.621 67.1123 310.486 54.6782C315.322 58.364 319.126 62.1665 323.152 67.3419L323.704 68.0518L324.468 67.5779C341.164 57.2236 352.304 44.1313 360.573 24.7525L360.575 24.7467C361.412 22.7521 361.898 21.6657 362.4 20.8243C362.887 20.0079 363.402 19.3995 364.351 18.3879L364.98 17.7164L351.849 3.18848ZM389.87 1.46625L390.022 2.60417C390.526 6.38857 390.781 10.4385 390.781 16.424L390.781 18.4648L390.781 18.4683V18.472L390.269 89.62C390.269 89.6224 390.269 89.6248 390.269 89.6271C390.205 92.8393 390.141 94.7254 389.943 96.1416C389.752 97.5079 389.436 98.4333 388.83 99.7061L388.551 100.293L400.91 114.735L401.632 114.31C402.675 113.697 403.332 113.386 404.282 113.113C405.25 112.834 406.518 112.594 408.775 112.167L408.975 112.129C408.978 112.129 408.981 112.128 408.984 112.128C427.95 108.848 443.439 103.469 456.536 95.2717C469.639 87.07 480.298 76.0776 489.644 61.6394L490.149 60.8603L489.409 60.2993C482.084 54.742 478.185 50.4715 472.345 42.0922L471.386 40.7151L470.632 42.2148C459.31 64.7343 440.788 79.0437 415.835 84.9256L416.589 18.361C416.717 10.8151 416.844 7.53477 417.476 2.73046L417.624 1.60572L389.87 1.46625ZM391.781 18.472L391.269 89.64C391.141 96.04 391.013 97.448 389.733 100.136L401.125 113.448C403.259 112.193 404.039 112.045 408.533 111.195L408.805 111.144C446.565 104.616 470.245 89.768 488.805 61.096C481.658 55.674 477.714 51.4383 472.176 43.5922C471.961 43.2883 471.745 42.979 471.525 42.664C471.355 43.0022 471.183 43.3385 471.01 43.673C459.469 65.9589 440.799 80.1315 415.824 85.9554C415.491 86.0331 415.156 86.1093 414.821 86.184L415.589 18.344C415.708 11.3199 415.827 7.94987 416.358 3.59938C416.398 3.27245 416.44 2.93998 416.485 2.60001L391.013 2.472C391.057 2.80329 391.099 3.13649 391.14 3.47266C391.567 7.03305 391.781 10.927 391.781 16.424V18.472ZM614.528 94.0842L613.809 93.3969C594.178 74.6471 588.73 69.9583 573.821 59.2128C580.725 49.8295 585.539 40.8546 592.149 25.266C594.05 20.959 594.758 19.8143 596.545 18.0271L597.244 17.3279L584.835 4.63685L584.227 4.86226C582.525 5.49245 581.552 5.78231 580.287 5.94409C579.001 6.10855 577.408 6.14243 574.478 6.2047L574.319 6.20811L574.313 6.20823L530.533 6.84826L530.524 6.8486C526.829 6.97601 524.409 6.97601 523.39 6.97601C518.446 6.97601 515.033 6.72348 510.077 6.08812L508.918 5.93946L509.622 31.0163L510.735 30.8535C515.919 30.0949 519.963 29.8396 530.962 29.5838C530.963 29.5838 530.964 29.5838 530.965 29.5837L562.719 29.0952C556.837 43.1287 549.231 54.0444 537.803 64.9815C526.256 76.0201 513.187 84.2712 496.663 90.6267L495.254 91.1686L496.303 92.2546C503.4 99.6055 506.029 103.362 510.464 112.231L510.905 113.114L511.794 112.684C531.393 103.2 546.561 92.0791 558.601 78.0888C572.518 88.9812 583.524 99.9159 594.414 113.684L595.13 114.591L614.528 94.0842Z" stroke="white"/>
</svg>
